<?xml version="1.0" encoding="UTF-8"?><svg xmlns="http://www.w3.org/2000/svg" xmlns:xlink="http://www.w3.org/1999/xlink" viewBox="0 0 301 199.45"><defs><style>.h,.i{fill:none;}.j{fill:#f04d53;}.i{clip-rule:evenodd;}.k{clip-path:url(#f);}.l{clip-path:url(#e);}.m{clip-path:url(#d);}.n{clip-path:url(#g);}</style><clipPath id="d"><path class="i" d="M132.79,75.75c-4.01,5.63-31.46,50.41-47.81,70.19-9.18,11.1-37.66,45.02-67.45,11.23C-9.07,127.01-1.43,75.85,14.33,53.1c6.85-9.89,15.81-17.96,29.01-17.31,10.9,.54,19.73,5.64,27.83,19.65,17.86,30.86,46.1,30.71,61.62,20.31"/></clipPath><clipPath id="e"><rect class="h" x="-321.34" y="-361.97" width="7091.7" height="3989.08"/></clipPath><clipPath id="f"><path class="i" d="M115.77,123.7S157.84,51.84,185.36,23.25c31.86-33.06,77.11-29.87,96.77,3.24,12.15,20.46,18.78,45.54,18.88,71.82,.08,25.97-9.33,81.64-43.11,96.54-20.28,8.94-47.28,6.26-69.89-20.38-40.82-48.09-55.15-55.17-72.24-50.77"/></clipPath><clipPath id="g"><rect class="h" x="-321.34" y="-361.97" width="7091.7" height="3989.08"/></clipPath></defs><g id="a"/><g id="b"><g id="c"><g><g class="m"><g class="l"><rect class="j" x="-18.47" y="17.29" width="169.72" height="172.96"/></g></g><g class="k"><g class="n"><rect class="j" x="97.3" y="-18.47" width="222.17" height="236.39"/></g></g></g></g></g></svg>